HIERARCHY
ROOT Hips
{
	OFFSET 0.000000 88.474243 0.000000
	CHANNELS 6 Xposition Yposition Zposition Zrotation Yrotation Xrotation 
	JOINT Hips_Spine
	{
		OFFSET 0.000000 0.000000 0.000000
		CHANNELS 3 Zrotation Yrotation Xrotation
		JOINT Spine
		{
			OFFSET 0.005100 8.711998 -0.691000
			CHANNELS 3 Zrotation Yrotation Xrotation
			JOINT Spine1
			{
				OFFSET -0.009200 8.660301 -1.275000
				CHANNELS 3 Zrotation Yrotation Xrotation
				JOINT Spine2
				{
					OFFSET 0.006300 9.852501 -1.857000
					CHANNELS 3 Zrotation Yrotation Xrotation
					JOINT Spine2_Neck
					{
						OFFSET 0.000000 0.000000 0.000000
						CHANNELS 3 Zrotation Yrotation Xrotation
						JOINT Neck
						{
							OFFSET 0.016300 11.420799 -0.263300
							CHANNELS 3 Zrotation Yrotation Xrotation
							End Site #name: Head
							{
								OFFSET -0.019200 9.262405 2.362500
							}
						}
					}
					JOINT Spine2_LeftShoulder
					{
						OFFSET 0.000000 0.000000 0.000000
						CHANNELS 3 Zrotation Yrotation Xrotation
						JOINT LeftShoulder
						{
							OFFSET 5.616900 6.732201 -0.345700
							CHANNELS 3 Zrotation Yrotation Xrotation
							JOINT LeftArm
							{
								OFFSET 10.664888 -0.183372 -2.440700
								CHANNELS 3 Zrotation Yrotation Xrotation
								JOINT LeftForeArm
								{
									OFFSET 27.459126 0.000000 0.000000
									CHANNELS 3 Zrotation Yrotation Xrotation
									End Site #name: LeftHand
									{
										OFFSET 21.306858 0.000000 0.000000
									}
								}
							}
						}
					}
					JOINT Spine2_RightShoulder
					{
						OFFSET 0.000000 0.000000 0.000000
						CHANNELS 3 Zrotation Yrotation Xrotation
						JOINT RightShoulder
						{
							OFFSET -5.580300 6.737503 -0.344400
							CHANNELS 3 Zrotation Yrotation Xrotation
							JOINT RightArm
							{
								OFFSET -10.679335 -0.188484 -2.383900
								CHANNELS 3 Zrotation Yrotation Xrotation
								JOINT RightForeArm
								{
									OFFSET -27.503529 0.000000 0.000000
									CHANNELS 3 Zrotation Yrotation Xrotation
									End Site #name: RightHand
									{
										OFFSET -21.306808 0.000000 0.000000
									}
								}
							}
						}
					}
				}
			}
		}
	}
	JOINT Hips_LeftUpLeg
	{
		OFFSET 0.000000 0.000000 0.000000
		CHANNELS 3 Zrotation Yrotation Xrotation
		JOINT LeftUpLeg
		{
			OFFSET 6.857700 -6.739601 0.312100
			CHANNELS 3 Zrotation Yrotation Xrotation
			JOINT LeftLeg
			{
				OFFSET -0.367590 -34.731552 -4.572400
				CHANNELS 3 Zrotation Yrotation Xrotation
				End Site #name: LeftFoot
				{
					OFFSET 0.367590 -34.656704 -6.067400
				}
			}
		}
	}
	JOINT Hips_RightUpLeg
	{
		OFFSET 0.000000 0.000000 0.000000
		CHANNELS 3 Zrotation Yrotation Xrotation
		JOINT RightUpLeg
		{
			OFFSET -6.876100 -6.733299 0.301000
			CHANNELS 3 Zrotation Yrotation Xrotation
			JOINT RightLeg
			{
				OFFSET 0.347353 -34.795158 -4.515900
				CHANNELS 3 Zrotation Yrotation Xrotation
				End Site #name: RightFoot
				{
					OFFSET -0.347353 -34.589367 -6.070300
				}
			}
		}
	}
}
MOTION
Frames: 17
Frame Time: 0.041667
0.078796 0.004316 0.013158 -0.416650 3.549192 -4.486460 0.000000 -0.000000 0.000000 -0.086446 -0.374157 2.341204 0.885573 0.075133 0.040185 0.000000 0.000000 0.000000 1.410726 -0.617920 -1.300041 -0.383980 -1.047347 0.807138 1.041034 -0.230462 0.005690 -13.260838 1.536515 0.196493 -50.320242 -0.261014 32.253898 0.007496 -34.642813 0.422095 1.010122 -0.048654 -0.128815 15.238800 10.466373 4.118211 52.217038 6.865610 -4.595470 -179.722425 43.116436 179.580467 0.000000 0.000000 0.000000 -0.798945 10.851339 -12.966443 5.386974 10.590681 20.499206 0.000000 0.000000 0.000000 1.665902 -11.995975 -8.050629 2.615434 8.248231 13.713295 
0.162268 -0.004148 -0.065524 -0.083404 3.644206 -4.722925 0.000000 -0.000000 0.000000 -0.812635 0.110935 -0.176086 0.974894 0.107732 0.740280 0.000000 0.000000 0.000000 0.750965 -0.138868 -0.252616 -0.342176 -1.015936 0.881787 1.186938 -0.293131 0.080306 -15.347049 2.450559 0.229180 -45.975994 -1.452476 39.275950 -0.109461 -36.767234 0.523979 0.816302 -0.070852 0.124934 14.867685 11.650454 3.405534 52.631607 20.747479 -4.329060 179.306290 41.403798 179.598799 0.000000 -0.000000 -0.000000 -0.958311 11.452947 -11.235166 4.398383 9.536072 18.903944 0.000000 -0.000000 0.000000 -0.125907 -14.083745 -8.417514 2.509422 7.661032 15.853481 
0.244408 -0.012968 -0.115739 -0.174558 3.705199 -4.868278 0.000000 -0.000000 0.000000 -0.563309 0.533356 0.362366 0.960924 0.347384 0.984482 0.000000 0.000000 0.000000 0.544442 -0.166278 0.025525 0.430195 -0.533421 0.154204 0.752258 0.003837 0.958800 -17.488292 4.950304 0.193947 -46.626523 0.280617 31.797149 -0.187584 -33.033960 0.479818 0.319288 0.327403 0.371303 17.657737 11.729413 3.908413 48.801048 26.497807 -7.741078 179.319723 43.278281 179.638377 0.000000 -0.000000 -0.000000 -0.732068 11.674797 -11.149306 4.585569 9.484814 19.224432 0.000000 -0.000000 0.000000 -0.770759 -14.835429 -8.724340 2.726688 6.988738 17.274827 
0.345270 -0.024206 -0.164933 -0.381002 3.411529 -5.028558 0.000000 -0.000000 0.000000 -0.786780 0.477354 0.474686 0.806476 0.174675 1.446346 0.000000 0.000000 0.000000 0.322894 -0.317959 0.578726 0.587519 -0.518312 0.526013 0.541466 -0.031182 1.484507 -17.975089 5.480335 0.001979 -50.476649 1.294547 28.414131 -0.181734 -27.462227 0.508691 0.022243 0.137570 0.940075 18.246572 11.488049 4.028480 45.901853 31.493813 -9.039926 179.456078 43.000414 179.765199 0.000000 0.000000 -0.000000 -0.454739 11.783451 -11.234989 4.701177 9.311772 19.585890 0.000000 -0.000000 0.000000 -1.004170 -15.061881 -8.934568 3.297836 6.925811 18.486707 
0.460239 -0.031291 -0.211951 -0.545267 3.258359 -5.158266 0.000000 -0.000000 0.000000 -0.943456 0.439997 0.529886 0.581019 0.005298 1.755190 0.000000 0.000000 0.000000 0.081771 -0.490881 0.935085 0.501704 -0.610783 0.955944 0.398634 -0.255065 1.789636 -18.320500 6.016822 -0.179615 -53.343659 0.129155 26.808298 -0.187848 -23.426710 0.523456 -0.320088 -0.007009 1.342588 18.454431 11.217698 3.996284 44.075155 34.682309 -10.177677 179.577919 42.411360 179.846566 0.000000 0.000000 -0.000000 -0.284431 11.838082 -11.258560 4.836388 9.339599 19.865102 0.000000 -0.000000 0.000000 -1.092174 -14.972908 -8.935656 3.461130 6.597629 19.069305 
0.576205 -0.036372 -0.259309 -0.643372 3.274866 -5.238833 0.000000 -0.000000 0.000000 -1.051136 0.370783 0.561300 0.359508 -0.135947 2.010843 0.000000 0.000000 0.000000 -0.110936 -0.605273 1.187385 0.354548 -0.714955 1.519980 0.263899 -0.432308 2.060871 -18.793106 6.171825 -0.218710 -54.090253 -0.736497 26.291695 -0.208986 -22.662171 0.542409 -0.583984 -0.126116 1.644345 18.529539 11.116397 3.977012 43.109161 36.196845 -11.094761 179.611855 42.110356 179.836633 0.000000 0.000000 -0.000000 -0.218210 11.879449 -11.241199 4.903602 9.331119 20.014092 0.000000 -0.000000 0.000000 -1.137630 -14.901073 -8.867627 3.515384 6.443990 19.261646 
0.682759 -0.038871 -0.305929 -0.727793 3.329731 -5.258779 0.000000 -0.000000 0.000000 -1.064750 0.306165 0.669945 0.243290 -0.234569 2.178007 0.000000 0.000000 0.000000 -0.214714 -0.626506 1.339752 0.251443 -0.807921 1.962650 0.179763 -0.489554 2.282470 -19.103238 6.251783 -0.217835 -53.589420 -0.466738 26.256870 -0.231774 -23.659483 0.548953 -0.713760 -0.170439 1.814939 18.559929 11.179784 3.985771 42.775633 36.762429 -11.429735 179.634541 41.994245 179.784401 0.000000 0.000000 -0.000000 -0.186388 11.917917 -11.272401 4.919350 9.254697 20.108164 0.000000 -0.000000 0.000000 -1.137955 -14.872375 -8.842711 3.535198 6.425116 19.291315 
0.769668 -0.038469 -0.350279 -0.827517 3.345339 -5.230649 0.000000 -0.000000 0.000000 -1.035321 0.285029 0.723225 0.247637 -0.249473 2.258131 0.000000 0.000000 0.000000 -0.228044 -0.625350 1.433915 0.223741 -0.862658 2.227714 0.172256 -0.484681 2.430718 -19.268277 6.280711 -0.205281 -52.572507 0.544831 26.257838 -0.250372 -25.320950 0.549449 -0.726262 -0.160855 1.874052 18.523779 11.213709 3.974772 42.821264 36.801222 -11.394230 179.648923 42.228246 179.754465 0.000000 0.000000 -0.000000 -0.149101 11.939736 -11.338564 4.932007 9.165076 20.111622 0.000000 -0.000000 0.000000 -1.082886 -14.854636 -8.890765 3.538929 6.431831 19.285237 
0.826978 -0.035937 -0.390238 -0.949396 3.300973 -5.175131 0.000000 -0.000000 0.000000 -0.996799 0.287911 0.736097 0.323569 -0.232653 2.294679 0.000000 0.000000 0.000000 -0.181619 -0.618994 1.484124 0.217869 -0.889752 2.376377 0.219974 -0.467596 2.524170 -19.346351 6.335381 -0.198559 -51.682050 1.792311 26.226967 -0.273708 -26.871651 0.547332 -0.659856 -0.146060 1.895445 18.476256 11.204269 3.956505 42.926149 36.631761 -11.310925 179.652271 42.625399 179.756130 0.000000 0.000000 -0.000000 -0.083902 11.969451 -11.434835 4.942242 9.066187 20.101045 0.000000 -0.000000 0.000000 -0.979999 -14.827527 -8.978012 3.543848 6.448026 19.263197 
0.855931 -0.032391 -0.426443 -1.064884 3.215870 -5.120230 0.000000 -0.000000 0.000000 -0.961663 0.298423 0.738772 0.414794 -0.216123 2.306019 0.000000 0.000000 0.000000 -0.120715 -0.617889 1.513803 0.211319 -0.891175 2.444125 0.289783 -0.462838 2.567946 -19.368337 6.359725 -0.196727 -51.105250 2.716524 26.130997 -0.291330 -28.150072 0.551336 -0.576129 -0.140755 1.906261 18.440405 11.198693 3.941514 43.028327 36.423581 -11.213459 179.661811 42.905663 179.770484 0.000000 0.000000 -0.000000 0.001631 12.009598 -11.525202 4.953929 8.973288 20.090477 0.000000 -0.000000 0.000000 -0.864460 -14.798825 -9.058261 3.546271 6.460406 19.230049 
0.857795 -0.028302 -0.459875 -1.157924 3.122680 -5.076025 0.000000 -0.000000 0.000000 -0.937623 0.307512 0.743353 0.487448 -0.210477 2.314158 0.000000 0.000000 0.000000 -0.072396 -0.622251 1.538565 0.199022 -0.881847 2.471530 0.348468 -0.473907 2.589445 -19.333791 6.396542 -0.210675 -50.867779 3.202275 26.075036 -0.304348 -29.011453 0.559168 -0.509899 -0.149441 1.920349 18.418546 11.203012 3.938594 43.073875 36.230458 -11.145605 179.672582 43.102469 179.786667 0.000000 0.000000 -0.000000 0.092182 12.060663 -11.598504 4.962341 8.898604 20.071071 0.000000 -0.000000 0.000000 -0.756910 -14.771173 -9.122420 3.538662 6.452866 19.190222 
0.833472 -0.023912 -0.491615 -1.223760 3.046381 -5.043270 0.000000 -0.000000 0.000000 -0.923914 0.311638 0.758979 0.531390 -0.214049 2.323845 0.000000 0.000000 0.000000 -0.044629 -0.628460 1.563322 0.180610 -0.873203 2.479615 0.383311 -0.489588 2.606783 -19.295463 6.402477 -0.219540 -50.838413 3.376363 26.113946 -0.311527 -29.490914 0.570075 -0.470673 -0.162281 1.941686 18.403597 11.218729 3.943659 43.046321 36.129794 -11.136471 179.679895 43.160701 179.799325 0.000000 0.000000 -0.000000 0.176936 12.106938 -11.659183 4.967549 8.839157 20.062524 0.000000 -0.000000 0.000000 -0.664750 -14.753009 -9.162485 3.531069 6.448448 19.141869 
0.783699 -0.019338 -0.522742 -1.259356 2.988525 -5.019319 0.000000 -0.000000 0.000000 -0.917803 0.309946 0.770367 0.550903 -0.222177 2.338283 0.000000 0.000000 0.000000 -0.034161 -0.634607 1.586247 0.163107 -0.866464 2.488965 0.401213 -0.507249 2.621164 -19.260860 6.372789 -0.217065 -50.913677 3.341990 26.235965 -0.315967 -29.660759 0.583205 -0.453941 -0.175595 1.965525 18.398555 11.241419 3.955252 42.993467 36.094476 -11.162135 179.680590 43.179504 179.807310 0.000000 0.000000 -0.000000 0.247767 12.137344 -11.700189 4.970914 8.796364 20.037174 0.000000 0.000000 0.000000 -0.589290 -14.737896 -9.186550 3.530032 6.450193 19.094916 
0.710171 -0.014722 -0.554354 -1.273789 2.948741 -5.000763 0.000000 -0.000000 0.000000 -0.915413 0.303588 0.782065 0.556545 -0.233035 2.354895 0.000000 0.000000 0.000000 -0.034240 -0.639719 1.608347 0.148162 -0.862033 2.505711 0.406621 -0.521061 2.639700 -19.230180 6.325660 -0.206759 -51.018159 3.270942 26.409230 -0.318444 -29.634409 0.595396 -0.450852 -0.187133 1.988987 18.394803 11.266221 3.967825 42.931901 36.094206 -11.176647 179.680041 43.147006 179.814056 0.000000 0.000000 -0.000000 0.312228 12.154461 -11.730333 4.968653 8.768037 20.010942 0.000000 0.000000 0.000000 -0.528382 -14.727142 -9.204282 3.531546 6.459209 19.062060 
0.614527 -0.010295 -0.587596 -1.267859 2.923241 -4.985015 0.000000 -0.000000 0.000000 -0.914676 0.294259 0.792142 0.558011 -0.243797 2.372389 0.000000 0.000000 0.000000 -0.036028 -0.643902 1.631434 0.139688 -0.857873 2.524607 0.408137 -0.531236 2.659461 -19.201534 6.271165 -0.190140 -51.099447 3.224691 26.579765 -0.322168 -29.542196 0.608202 -0.452791 -0.195981 2.011708 18.395986 11.290701 3.980231 42.875332 36.109427 -11.199195 179.676709 43.106169 179.817550 0.000000 0.000000 -0.000000 0.369078 12.162214 -11.750543 4.962238 8.747881 19.976695 0.000000 -0.000000 0.000000 -0.475868 -14.720492 -9.214356 3.536042 6.475236 19.027145 
0.498374 -0.006284 -0.623513 -1.244471 2.906840 -4.970257 0.000000 -0.000000 0.000000 -0.912349 0.282988 0.801077 0.560160 -0.254364 2.389078 0.000000 0.000000 0.000000 -0.035860 -0.646277 1.653585 0.134329 -0.852896 2.548812 0.410583 -0.540224 2.680691 -19.177084 6.215699 -0.171337 -51.163822 3.219565 26.687317 -0.324806 -29.456278 0.618901 -0.453183 -0.202678 2.031413 18.399967 11.310936 3.990900 42.838662 36.124079 -11.195639 179.673138 43.048767 179.819224 0.000000 0.000000 -0.000000 0.420489 12.162297 -11.761333 4.955046 8.740333 19.931111 0.000000 -0.000000 0.000000 -0.425696 -14.719313 -9.217402 3.545392 6.502559 18.989659 
0.363488 -0.003031 -0.663278 -1.203726 2.900046 -4.955578 0.000000 -0.000000 0.000000 -0.909186 0.270269 0.813544 0.566219 -0.264272 2.404373 0.000000 0.000000 0.000000 -0.030465 -0.648560 1.673332 0.132019 -0.848724 2.579476 0.415974 -0.547613 2.699930 -19.157369 6.162656 -0.152470 -51.212648 3.258818 26.774480 -0.328138 -29.413072 0.630380 -0.447744 -0.208134 2.047578 18.401455 11.329155 3.999126 42.819788 36.126321 -11.192552 179.668871 42.994995 179.821579 0.000000 0.000000 -0.000000 0.466735 12.153870 -11.769136 4.944676 8.735285 19.886522 0.000000 -0.000000 0.000000 -0.381913 -14.727168 -9.213477 3.552823 6.532916 18.947573 
